<?xml version="1.0" standalone="no"?>
<!DOCTYPE svg PUBLIC "-//W3C//DTD SVG 20010904//EN"
 "http://www.w3.org/TR/2001/REC-SVG-20010904/DTD/svg10.dtd">
<svg version="1.0" xmlns="http://www.w3.org/2000/svg"
 width="259.000000pt" height="194.000000pt" viewBox="0 0 259.000000 194.000000"
 preserveAspectRatio="xMidYMid meet">

<g transform="translate(0.000000,194.000000) scale(0.100000,-0.100000)"
fill="#000000" stroke="none">
<path d="M2 1555 c2 -247 7 -385 13 -386 6 -1 19 -6 30 -12 11 -6 23 -10 27
-9 5 1 9 -5 9 -13 3 -28 4 -33 11 -41 11 -10 -11 -34 -31 -34 -13 0 -14 2 -2
9 12 8 9 11 -12 16 -14 4 -25 12 -24 17 1 6 -3 12 -9 15 -8 3 -12 -26 -13 -97
l-2 -101 24 6 c27 7 57 -16 57 -43 0 -9 5 -24 11 -32 8 -11 9 -4 6 28 -5 40
-4 42 21 42 14 0 22 -3 19 -6 -3 -4 4 -15 17 -25 15 -12 23 -29 24 -54 1 -32
-1 -36 -21 -33 -12 2 -21 8 -20 14 1 7 -18 10 -50 8 -71 -4 -76 -5 -70 -21 3
-7 1 -13 -5 -13 -5 0 -10 -36 -11 -80 l-2 -80 43 0 c74 0 91 -36 32 -66 -20
-11 -44 -23 -55 -29 -17 -9 -19 -22 -19 -112 0 -92 2 -104 20 -115 11 -7 20
-18 20 -25 0 -7 4 -13 9 -13 5 0 7 -9 4 -20 -3 -11 -10 -20 -16 -20 -26 0 -36
-38 -37 -132 l0 -98 123 1 c82 1 110 4 84 9 -46 9 -84 42 -89 80 -7 44 7 70
37 70 22 0 25 -4 20 -20 -9 -28 18 -26 59 5 18 14 40 25 49 25 10 0 17 5 17
10 0 6 -5 10 -11 10 -5 0 -7 5 -3 12 4 6 3 8 -4 5 -5 -4 -22 7 -36 24 -22 25
-26 41 -26 89 0 76 14 91 80 86 27 -2 47 1 44 5 -3 5 5 5 18 0 15 -6 22 -15
20 -27 -2 -11 -1 -16 3 -12 9 8 35 -16 35 -31 0 -6 13 -11 29 -11 28 0 29 2
29 43 -1 34 7 54 36 95 30 44 33 51 14 39 -30 -18 -127 -15 -139 4 -5 8 -9 12
-10 9 -6 -34 -9 -43 -15 -48 -4 -4 -5 1 -1 10 5 16 -17 34 -37 29 -4 -1 -14 5
-20 14 -9 12 -18 14 -36 7 -29 -10 -100 -4 -100 9 0 5 -7 9 -15 9 -25 0 -38
38 -25 71 14 34 59 69 88 69 31 0 79 -29 85 -50 5 -20 5 -20 39 0 38 22 144
31 188 16 20 -7 23 -6 13 5 -17 18 -16 61 2 85 17 22 20 43 4 27 -11 -11 -59
-6 -59 7 0 4 -11 15 -25 24 -24 16 -26 15 -47 -4 -13 -12 -35 -20 -55 -20 -18
0 -33 -5 -33 -11 0 -7 -11 0 -24 14 l-25 27 5 -38 c2 -20 2 -31 -2 -24 -3 6
-10 12 -15 12 -6 0 -8 -4 -5 -8 2 -4 -4 -8 -15 -8 -10 0 -19 5 -19 11 0 5 -5
3 -10 -5 -8 -13 -10 -12 -10 3 0 11 -4 15 -12 11 -18 -11 -3 74 18 97 10 11
24 18 33 17 8 -2 27 9 41 24 16 15 43 29 66 33 21 3 48 8 59 10 24 5 62 64 48
74 -6 3 -14 16 -17 29 -5 14 -18 25 -36 28 -25 6 -42 26 -53 64 -2 8 6 37 19
64 l23 49 -33 31 c-18 17 -39 40 -47 51 -8 11 -23 25 -34 31 -29 16 -32 60 -5
69 11 4 32 24 46 46 22 36 28 39 70 39 55 0 100 -22 106 -52 4 -18 3 -127 -1
-180 -1 -5 -11 -8 -23 -8 -16 0 -19 -3 -10 -9 17 -10 -1 -25 -41 -35 -24 -6
-26 -9 -17 -26 12 -23 19 -24 53 -11 27 10 53 -1 42 -18 -5 -9 1 -10 22 -5 25
7 27 6 14 -10 -12 -14 -12 -16 3 -10 9 3 16 10 16 15 0 4 7 6 15 3 19 -8 19
10 0 26 -8 7 -12 17 -9 22 4 6 -2 7 -16 3 -16 -5 -21 -4 -18 6 3 8 12 13 21
13 9 -1 14 2 11 7 -3 5 2 9 11 9 8 0 18 -6 21 -14 9 -23 40 -7 50 27 13 45 60
69 133 69 61 0 111 -22 111 -48 0 -7 8 -19 18 -26 36 -26 37 -43 1 -22 -32 19
-35 19 -35 3 0 -10 4 -16 7 -13 4 2 11 -1 15 -8 4 -7 4 -10 -1 -6 -4 4 -14 0
-22 -10 -8 -9 -11 -11 -8 -4 6 12 3 12 -16 2 -22 -12 -20 -14 38 -40 33 -15
66 -36 72 -46 11 -19 11 -20 15 26 1 19 41 16 74 -6 18 -12 21 -19 13 -27 -6
-6 -11 -18 -11 -26 0 -16 -42 -71 -53 -71 -3 0 -8 8 -10 17 -3 10 -5 4 -6 -14
-1 -33 -35 -68 -54 -56 -6 3 -7 1 -3 -5 4 -6 -4 -16 -16 -23 -21 -11 -22 -11
-10 4 11 13 10 15 -7 10 -11 -3 -19 -10 -18 -17 4 -23 -54 -18 -94 9 -39 27
-42 34 -54 91 -3 18 -14 38 -23 46 -19 15 -77 48 -85 48 -5 0 -29 -62 -25 -65
25 -13 61 -24 67 -21 4 3 12 -4 19 -15 7 -10 8 -19 3 -19 -5 0 -12 6 -14 13
-3 6 -4 -1 -3 -18 2 -16 7 -38 11 -47 4 -10 5 -38 3 -62 -3 -44 -3 -45 27 -45
16 0 44 -4 62 -9 24 -8 33 -7 37 3 2 7 18 16 35 20 17 4 31 12 31 19 0 8 17
16 38 20 65 10 79 8 78 -15 -1 -12 10 -28 24 -38 l24 -16 -17 25 c-24 34 -21
48 3 17 11 -14 20 -29 20 -35 0 -14 -32 -76 -44 -84 -14 -9 -28 1 -20 15 3 7
-1 4 -9 -6 -16 -19 -37 -23 -37 -7 0 6 -9 10 -20 10 -11 0 -20 3 -20 8 0 4
-13 7 -29 8 -33 1 -41 -14 -41 -78 0 -41 -9 -70 -19 -64 -4 3 -7 -4 -7 -15 0
-19 1 -19 13 -3 7 10 13 21 13 25 0 4 7 9 15 13 14 5 14 2 0 -22 -31 -56 -41
-65 -64 -50 -12 7 -21 17 -21 23 0 5 -5 2 -11 -7 -11 -19 -73 -25 -83 -9 -3 5
-15 7 -27 4 -12 -4 -32 3 -48 15 l-28 20 7 -38 c5 -25 3 -41 -3 -43 -7 -2 -6
-9 3 -19 10 -11 22 -13 36 -8 24 9 104 -22 117 -46 10 -18 27 -18 27 1 0 8 4
15 8 15 5 0 14 11 19 23 6 13 26 31 45 40 19 9 45 30 58 47 25 33 47 33 83 2
14 -12 17 -24 12 -47 -3 -16 -8 -45 -12 -63 -3 -21 -11 -32 -22 -32 -12 0 -13
-2 -3 -8 9 -7 6 -15 -14 -37 -18 -20 -28 -25 -33 -16 -5 8 -18 10 -35 5 -14
-3 -32 -2 -39 3 -6 5 -19 9 -27 8 -8 0 -18 4 -22 10 -5 6 -8 6 -8 -2 0 -6 5
-15 10 -18 11 -7 14 -48 3 -58 -3 -4 -8 -24 -10 -44 -2 -21 -11 -41 -19 -46
-7 -4 -14 -16 -14 -27 0 -14 -10 -20 -40 -25 -22 -4 -46 -12 -53 -19 -6 -7
-20 -15 -30 -19 -15 -6 -17 -3 -12 13 5 16 2 20 -19 20 -24 0 -35 13 -19 23 5
2 2 2 -4 1 -7 -2 -13 3 -13 11 0 7 -6 20 -13 27 -7 7 -18 22 -25 33 -9 16 -11
17 -12 4 0 -9 7 -22 15 -29 8 -7 13 -16 10 -20 -2 -4 4 -24 15 -45 19 -37 19
-40 3 -57 -15 -16 -15 -21 -3 -28 8 -5 22 -5 32 1 16 9 18 7 14 -13 -5 -28
-55 -88 -73 -88 -7 0 -13 -4 -13 -10 0 -12 -80 -13 -99 -1 -16 10 -41 4 -41
-10 0 -5 66 -9 147 -9 126 0 144 2 128 14 -16 11 -17 19 -9 57 9 43 9 44 62
52 28 5 52 12 52 16 0 5 18 11 40 15 41 6 53 0 89 -46 11 -14 10 -22 -5 -48
-10 -17 -24 -28 -31 -26 -7 3 -16 -1 -20 -9 -5 -7 -21 -15 -38 -18 -28 -4 -28
-4 6 -6 26 -1 44 6 63 24 30 27 51 33 43 11 -8 -20 13 -36 47 -36 23 0 27 3
18 12 -7 7 -12 23 -12 36 0 19 4 23 20 19 11 -3 20 0 20 6 0 7 5 5 10 -3 5 -8
10 -11 10 -7 0 4 10 -1 22 -12 17 -17 19 -23 8 -36 -10 -12 -10 -15 2 -15 9 0
19 19 27 48 17 63 69 134 106 144 17 4 46 6 65 3 19 -2 26 -2 15 2 -32 9 -74
61 -67 85 4 18 3 19 -18 8 -29 -16 -94 -6 -137 21 -54 34 -37 15 32 -36 36
-27 65 -54 65 -61 0 -19 -65 -84 -83 -84 -18 0 -40 33 -30 44 12 12 -13 6 -26
-6 -11 -11 -12 -10 -6 0 6 11 3 12 -13 3 -11 -6 -28 -8 -36 -5 -10 4 -16 1
-16 -7 0 -20 -30 27 -40 62 -12 40 22 105 68 134 21 13 31 28 32 45 1 49 21
99 50 124 19 16 28 30 24 40 -3 9 -10 14 -14 11 -18 -11 -45 38 -45 82 0 39 4
49 29 67 70 50 76 62 69 138 -6 68 -5 70 23 93 28 22 28 24 16 59 -12 32 -11
38 6 57 11 11 47 27 83 35 35 8 85 20 111 26 52 13 83 0 115 -48 14 -22 14
-27 2 -35 -11 -7 -11 -9 0 -9 7 0 11 -6 8 -12 -20 -49 -20 -48 11 -48 25 0 30
5 35 30 9 43 44 61 121 62 75 0 107 -15 132 -63 12 -25 13 -37 5 -55 -11 -25
-62 -45 -68 -27 -2 6 -18 -3 -36 -21 -25 -25 -32 -28 -35 -15 -2 10 -11 20
-20 23 -9 3 -23 9 -30 12 -9 4 -10 0 -3 -18 4 -12 7 -34 5 -47 -4 -20 -1 -22
21 -17 14 4 45 9 70 13 29 3 46 11 50 22 6 19 55 51 79 51 25 0 19 35 -13 69
-29 31 -32 58 -10 87 13 16 0 24 -37 24 -73 0 -131 93 -104 165 13 35 58 85
77 85 18 0 36 -37 20 -43 -6 -3 -3 -6 9 -6 12 -1 26 -12 32 -26 6 -14 17 -25
23 -25 8 0 7 6 -2 18 -12 14 -10 14 8 -2 12 -10 29 -16 37 -13 8 3 16 1 18 -4
2 -5 13 -11 25 -12 33 -2 40 -54 11 -84 -12 -13 -27 -22 -34 -19 -7 3 -20 -1
-30 -8 -14 -11 -8 -12 39 -8 52 4 58 2 87 -26 19 -19 28 -36 24 -46 -3 -9 -1
-16 5 -16 6 0 11 4 11 9 0 5 12 7 28 5 15 -3 33 -5 40 -6 15 -2 16 -18 0 -18
-6 0 -9 -2 -7 -5 3 -2 25 3 49 11 46 16 130 12 130 -6 0 -5 6 -7 13 -4 16 6
18 36 3 46 -8 5 -7 8 2 8 6 0 12 3 12 8 0 4 -36 6 -80 5 -76 -2 -80 -1 -100
25 -12 15 -42 34 -68 42 -35 11 -48 21 -50 38 -2 12 1 22 6 22 5 0 15 19 22
43 8 23 19 46 25 50 5 5 0 5 -12 2 -28 -8 -28 -4 -4 24 17 19 26 21 63 16 36
-5 47 -3 59 12 13 16 12 17 -2 5 -16 -12 -75 -7 -84 8 -5 7 19 57 48 101 14
20 23 25 48 21 17 -2 33 -11 36 -18 8 -22 18 -16 36 20 16 34 15 35 -4 31 -11
-2 -22 2 -26 10 -3 8 -14 15 -25 15 -14 0 -18 5 -14 15 3 8 1 15 -5 15 -6 0
-19 10 -29 22 -18 23 -18 22 -8 -30 9 -50 8 -56 -18 -90 -16 -20 -30 -30 -32
-23 -2 6 1 18 7 25 9 11 5 15 -19 18 -29 4 -30 4 -30 -37 0 -27 -9 -54 -27
-82 -42 -66 -98 -80 -159 -42 -31 19 -34 19 -34 3 0 -15 -2 -16 -18 -2 -9 9
-27 19 -40 23 -16 4 -23 14 -21 28 3 45 -1 68 -12 62 -6 -4 -8 -13 -5 -21 7
-18 -4 -45 -15 -38 -5 3 -9 -1 -9 -9 0 -8 -6 -19 -12 -25 -15 -11 -80 -25
-118 -24 -22 1 -21 -1 11 -18 20 -11 39 -26 43 -35 11 -30 -7 -136 -29 -168
-19 -28 -27 -32 -60 -30 -57 4 -114 65 -116 125 0 15 -3 18 -6 8 -6 -15 -52
-64 -86 -90 -10 -7 -41 -15 -68 -17 -43 -2 -53 1 -84 29 -20 17 -45 48 -55 68
-16 31 -23 37 -43 33 -35 -7 -92 24 -78 41 8 10 7 17 -4 26 -18 15 -12 45 16
75 88 96 88 97 111 89 38 -11 78 -44 78 -63 0 -24 41 -17 66 10 9 10 22 19 28
19 6 0 16 10 21 23 7 15 23 25 53 31 57 12 88 -5 97 -50 3 -19 10 -32 14 -29
5 3 12 -2 15 -11 8 -22 8 -26 -3 -19 -5 3 -11 -2 -13 -12 -2 -13 -15 -17 -51
-19 -27 -1 -51 -5 -54 -7 -2 -3 5 -15 16 -26 12 -12 21 -29 21 -38 0 -14 4
-12 17 7 25 36 55 59 77 60 13 0 16 5 11 18 -4 9 -9 33 -12 52 -4 19 -15 41
-25 48 -22 16 -23 35 -3 52 8 7 15 21 15 31 0 14 7 19 30 19 32 0 37 -9 18
-28 -7 -7 -8 -12 -2 -12 6 0 22 13 37 28 l27 28 -27 -2 c-33 -1 -59 21 -68 58
-7 26 -7 26 -26 7 -10 -10 -19 -26 -19 -34 0 -8 -4 -15 -10 -15 -5 0 -10 -7
-10 -15 0 -18 3 -18 -60 -4 -41 9 -50 14 -50 32 0 16 -3 18 -9 9 -5 -9 -10 -1
-14 25 -11 66 -8 87 22 122 26 30 33 33 65 28 38 -6 77 -31 96 -61 7 -11 7
-16 1 -11 -6 3 -11 1 -11 -4 0 -18 22 -13 46 10 l23 21 -32 29 c-17 16 -35 29
-39 29 -5 0 -8 7 -8 15 0 17 29 9 47 -14 7 -10 12 -11 13 -4 0 6 -6 18 -14 25
-9 9 -10 21 -4 37 8 22 10 23 26 7 10 -9 31 -16 46 -16 16 0 25 -4 21 -10 -3
-5 1 -10 9 -10 9 0 16 -4 16 -10 0 -5 -5 -10 -11 -10 -5 0 -7 -4 -4 -10 3 -5
2 -10 -4 -10 -6 0 -8 -7 -5 -15 4 -8 11 -12 18 -8 6 4 5 -1 -3 -10 -12 -15
-11 -17 11 -17 20 0 25 5 25 28 0 64 63 107 139 95 37 -6 81 -54 68 -74 -4 -8
-3 -9 4 -5 17 11 15 -9 -3 -24 -10 -9 -15 -9 -15 -1 0 6 -4 11 -10 11 -5 0
-10 -7 -10 -15 0 -8 -9 -24 -20 -35 -16 -16 -25 -18 -45 -10 -22 9 -24 8 -17
-8 12 -22 3 -92 -11 -92 -6 0 -8 -3 -4 -6 9 -9 -20 -35 -40 -35 -10 -1 -29 2
-43 6 l-25 7 25 -18 c14 -10 37 -29 51 -44 l25 -26 18 23 c9 13 14 28 11 34
-4 6 -4 25 -1 43 6 30 10 34 49 39 29 4 47 1 58 -9 20 -18 29 -18 29 0 0 7 6
19 14 25 9 8 12 24 9 50 -7 52 18 100 58 108 17 3 44 22 63 45 29 33 39 39 68
36 22 -2 32 -8 30 -17 -2 -8 3 -11 12 -8 10 4 23 -4 35 -21 16 -23 17 -29 5
-40 -27 -25 -6 -38 64 -38 54 0 74 -5 104 -25 43 -27 62 -65 56 -108 -3 -22
-1 -28 10 -23 10 3 9 -2 -4 -16 -20 -24 -29 -29 -18 -9 4 6 -1 5 -12 -4 -10
-9 -26 -19 -34 -22 -8 -3 1 -6 20 -6 19 -1 53 -11 75 -24 33 -19 41 -29 48
-67 5 -25 9 -51 9 -58 1 -7 8 -10 15 -7 8 3 21 5 29 5 12 0 12 4 2 23 -7 12
-15 24 -18 27 -10 10 -11 70 -1 70 6 0 8 7 5 15 -5 12 0 14 24 9 16 -3 32 -2
35 4 4 5 -5 7 -20 4 -16 -3 -24 -1 -20 5 7 11 55 23 90 24 15 0 17 15 17 170
l0 169 -313 -2 c-269 -3 -312 -5 -313 -18 -4 -35 -17 -60 -33 -60 -9 0 -29 -7
-45 -15 -29 -15 -71 -12 -61 5 3 5 -10 14 -29 21 -22 8 -39 23 -47 41 -10 25
-17 28 -55 28 -30 0 -55 -8 -80 -25 -22 -15 -45 -23 -53 -19 -9 3 -31 8 -48
11 -19 3 -33 12 -33 19 0 11 -25 14 -121 14 -104 0 -120 -2 -115 -15 3 -8 9
-22 12 -30 4 -9 -1 -17 -10 -21 -9 -3 -16 -10 -16 -16 0 -5 5 -6 10 -3 15 9
12 -17 -5 -39 -11 -14 -21 -17 -42 -11 -15 3 -31 12 -35 18 -5 8 -11 8 -15 2
-11 -14 -33 -17 -33 -4 0 5 -5 7 -10 4 -6 -3 3 -17 20 -31 37 -32 57 -97 39
-130 -6 -12 -9 -32 -6 -43 4 -15 0 -21 -11 -21 -13 0 -12 -3 4 -15 19 -14 19
-14 -1 -15 -11 -1 -14 -4 -7 -7 16 -6 16 -26 0 -21 -7 3 -17 -5 -23 -16 -13
-26 -84 -32 -126 -10 -17 8 -48 43 -70 76 -21 34 -39 56 -39 49 0 -7 -4 -10
-9 -6 -5 3 -13 0 -16 -6 -4 -5 -13 -8 -21 -5 -7 3 -16 1 -19 -4 -4 -6 -19 -10
-35 -10 -97 0 -91 196 6 215 23 4 34 12 38 30 6 24 26 35 26 14 0 -5 5 -7 10
-4 5 3 10 1 10 -4 0 -6 8 -11 17 -11 15 0 15 -1 -1 -13 -16 -12 -16 -14 -2
-26 12 -10 19 -10 38 3 14 10 44 16 79 16 l57 0 -1 55 c-2 50 -4 55 -25 55
-13 0 -20 -4 -17 -10 11 -18 -5 -69 -23 -73 -9 -2 -27 5 -39 16 -13 12 -23 15
-23 9 0 -18 -25 -14 -43 6 -22 25 -21 35 2 29 14 -3 18 -1 14 9 -4 11 -34 14
-138 14 l-132 0 -6 -30 c-4 -16 -4 -36 -1 -44 8 -20 34 -8 34 15 0 25 18 24
41 -2 10 -11 23 -18 28 -14 6 3 11 1 11 -4 0 -11 -26 -15 -62 -12 -10 1 -18
-3 -18 -8 0 -6 5 -11 10 -11 18 0 10 -19 -11 -25 -14 -5 -18 -12 -13 -23 3
-10 8 -28 10 -42 2 -14 1 -17 -2 -7 -8 24 -22 21 -26 -5 -3 -21 -8 -23 -60
-21 -70 2 -89 12 -128 67 -36 53 -39 102 -10 134 11 12 20 24 20 27 0 3 -101
5 -225 5 l-225 0 2 -385z m388 269 c0 -8 -4 -12 -10 -9 -5 3 -10 10 -10 16 0
5 5 9 10 9 6 0 10 -7 10 -16z m1985 -14 c-3 -5 -1 -10 5 -10 6 0 8 -4 5 -10
-3 -5 -1 -10 5 -10 6 0 9 -4 6 -9 -10 -15 -57 -9 -68 9 -7 10 -19 15 -30 12
-26 -6 -23 7 5 18 31 12 80 12 72 0z m55 -159 c0 -4 -12 -13 -27 -20 -27 -12
-27 -12 -10 6 9 11 14 23 10 27 -4 4 0 4 10 0 9 -3 17 -9 17 -13z m-1927 -19
c22 15 38 19 72 15 58 -8 82 -21 127 -71 41 -44 45 -55 26 -74 -7 -7 -8 -12
-2 -12 5 0 14 4 19 9 9 8 83 31 154 48 14 4 27 0 32 -8 12 -19 11 -29 -2 -29
-14 0 -36 -26 -50 -60 -8 -20 -12 -22 -19 -10 -7 11 -12 12 -20 4 -17 -17 17
-49 36 -33 8 6 14 7 14 2 0 -5 -12 -16 -27 -24 -16 -8 -31 -18 -34 -23 -11
-14 -59 3 -86 30 -19 19 -24 33 -21 55 3 16 3 29 2 29 -12 0 -74 -35 -74 -42
0 -17 -36 -6 -59 17 -13 14 -26 24 -28 21 -9 -9 -53 38 -53 56 0 10 -5 18 -11
18 -5 0 -7 -5 -3 -12 4 -6 3 -8 -4 -5 -5 4 -8 15 -5 26 3 10 -2 21 -10 24 -11
4 -13 0 -10 -14 4 -15 2 -18 -11 -13 -9 3 -16 1 -16 -6 0 -7 -5 -7 -14 3 -17
17 -15 59 4 82 12 14 14 14 29 -4 15 -19 16 -19 44 1z m-208 -32 c3 -5 1 -10
-4 -10 -6 0 -11 5 -11 10 0 6 2 10 4 10 3 0 8 -4 11 -10z m935 -15 c48 -25 54
-48 24 -85 -28 -32 -53 -33 -83 -4 -12 11 -11 15 12 23 30 12 35 32 12 51 -8
7 -12 16 -9 21 7 12 10 12 44 -6z m-1021 -225 c19 -5 44 -19 56 -30 l23 -21
-21 -42 c-12 -23 -20 -46 -18 -51 1 -5 -5 -4 -13 3 -11 9 -24 10 -50 3 -29 -9
-34 -8 -29 5 5 12 1 14 -15 8 -13 -4 -22 -2 -22 4 0 15 -30 14 -31 -1 0 -7 -5
-2 -10 12 -6 15 -6 26 -1 28 6 2 8 12 5 22 -6 24 41 70 71 70 12 0 36 -4 55
-10z m117 -113 c3 -29 -10 -37 -20 -11 -10 25 -7 46 5 42 7 -2 13 -16 15 -31z
m184 19 c0 -3 -4 -8 -10 -11 -5 -3 -10 -1 -10 4 0 6 5 11 10 11 6 0 10 -2 10
-4z m-35 -36 c-11 -5 -29 -8 -40 -8 -16 0 -15 2 5 8 34 11 60 11 35 0z m-175
-26 c0 -3 -7 -12 -15 -21 -20 -19 -32 -9 -15 12 12 15 30 20 30 9z m1310 -63
c-1 -17 -29 -41 -43 -36 -24 10 -9 43 19 43 13 0 24 -3 24 -7z m-1307 -12 c20
-5 37 -14 37 -19 0 -19 2 -25 12 -37 14 -17 0 -77 -15 -64 -7 5 -37 11 -67 14
-30 3 -66 8 -80 10 -14 3 -28 6 -32 6 -14 2 -8 17 23 59 33 46 53 51 122 31z
m-164 -357 c-17 -11 -18 -16 -8 -23 12 -8 12 -11 -1 -18 -19 -13 -33 -3 -25
18 4 9 8 23 10 31 2 8 4 16 4 17 1 0 10 -1 21 -4 21 -6 21 -6 -1 -21z m138
-58 c-3 -3 -12 -4 -19 -1 -8 3 -5 6 6 6 11 1 17 -2 13 -5z m-115 -268 c0 -11
1 -27 1 -33 -1 -7 3 -13 7 -13 5 0 11 6 13 13 3 6 6 2 6 -10 1 -13 -4 -23 -10
-23 -5 0 -9 -8 -8 -17 4 -40 -2 -53 -31 -68 -50 -26 -112 -13 -81 18 6 6 10
22 10 36 -2 25 -2 25 -6 3 -4 -23 -5 -22 -22 10 -23 42 -11 72 37 97 43 22 81
16 84 -13z"/>
<path d="M785 1390 c3 -5 11 -10 16 -10 6 0 7 5 4 10 -3 6 -11 10 -16 10 -6 0
-7 -4 -4 -10z"/>
<path d="M145 1350 c-8 -13 9 -20 24 -11 10 6 9 10 -3 14 -8 3 -18 2 -21 -3z"/>
<path d="M1570 1119 c0 -5 5 -7 10 -4 6 3 10 8 10 11 0 2 -4 4 -10 4 -5 0 -10
-5 -10 -11z"/>
<path d="M40 401 c0 -12 5 -21 10 -21 6 0 10 6 10 14 0 8 -4 18 -10 21 -5 3
-10 -3 -10 -14z"/>
<path d="M520 1931 c0 -6 5 -13 11 -17 6 -3 9 -21 7 -38 -3 -17 -2 -44 2 -61
5 -26 7 -23 14 27 7 56 26 86 46 73 5 -3 10 1 10 9 0 21 -39 21 -46 1 -4 -8
-10 -15 -15 -15 -5 0 -9 7 -9 15 0 8 -4 15 -10 15 -5 0 -10 -4 -10 -9z"/>
<path d="M1680 1850 c0 -11 5 -20 10 -20 6 0 10 6 10 13 0 9 2 9 9 -1 7 -11 9
-10 14 3 4 9 3 13 -2 10 -5 -3 -12 -1 -16 5 -10 17 -25 11 -25 -10z"/>
<path d="M1480 1810 c0 -6 7 -13 15 -17 24 -9 27 1 5 15 -13 8 -20 8 -20 2z"/>
<path d="M2035 1740 c-3 -5 -1 -10 4 -10 6 0 11 5 11 10 0 6 -2 10 -4 10 -3 0
-8 -4 -11 -10z"/>
<path d="M845 1728 c-4 -10 -4 -26 0 -35 8 -17 8 -17 12 0 3 9 3 25 0 35 -4
16 -4 16 -12 0z"/>
<path d="M800 1706 c0 -14 28 -42 35 -34 2 2 2 14 -2 26 -6 24 -33 31 -33 8z"/>
<path d="M1940 1704 c0 -4 69 -34 76 -34 14 0 1 30 -13 31 -10 1 -28 3 -40 4
-13 1 -23 1 -23 -1z"/>
<path d="M1548 1694 c-5 -4 -8 -16 -8 -28 0 -14 3 -17 11 -9 6 6 9 19 7 28 -1
9 -6 13 -10 9z"/>
<path d="M1930 1670 c0 -6 7 -10 15 -10 8 0 15 2 15 4 0 2 -7 6 -15 10 -8 3
-15 1 -15 -4z"/>
<path d="M1102 1630 c-11 -17 -10 -20 8 -17 27 4 33 12 17 25 -10 8 -16 6 -25
-8z"/>
<path d="M1945 1630 c-3 -5 1 -10 9 -10 9 0 16 5 16 10 0 6 -4 10 -9 10 -6 0
-13 -4 -16 -10z"/>
<path d="M2215 1600 c-3 -5 1 -10 9 -10 9 0 16 5 16 10 0 6 -4 10 -9 10 -6 0
-13 -4 -16 -10z"/>
<path d="M1473 1529 c-13 -5 -23 -15 -23 -24 0 -18 9 -19 34 0 24 19 17 35
-11 24z"/>
<path d="M1855 1520 c-3 -5 -1 -10 4 -10 6 0 11 5 11 10 0 6 -2 10 -4 10 -3 0
-8 -4 -11 -10z"/>
<path d="M2380 1490 c0 -5 5 -10 10 -10 6 0 10 5 10 10 0 6 -4 10 -10 10 -5 0
-10 -4 -10 -10z"/>
<path d="M1821 1454 c0 -11 3 -14 6 -6 3 7 2 16 -1 19 -3 4 -6 -2 -5 -13z"/>
<path d="M2570 1425 c-7 -8 -20 -15 -29 -15 -13 -1 -12 -3 4 -12 11 -6 26 -18
33 -26 10 -13 12 -9 12 26 0 46 -2 49 -20 27z"/>
<path d="M478 1359 c3 -21 -1 -34 -13 -43 -13 -9 -15 -15 -7 -20 7 -4 17 -4
22 -1 12 7 14 95 2 95 -5 0 -7 -14 -4 -31z"/>
<path d="M2160 1380 c0 -5 18 -19 39 -29 21 -11 49 -36 60 -55 20 -31 21 -42
13 -100 l-8 -65 35 15 c23 10 50 13 76 9 34 -6 38 -5 24 7 -29 24 -59 76 -59
102 0 19 10 32 40 51 22 14 40 32 40 40 0 8 5 15 12 15 6 0 8 3 5 7 -4 3 -15
-1 -24 -9 -28 -23 -81 -41 -119 -40 -37 2 -95 27 -107 48 -9 16 -27 19 -27 4z"/>
<path d="M2040 1321 c-12 -24 -13 -31 -2 -31 5 0 14 11 20 25 14 29 -2 34 -18
6z"/>
<path d="M2052 1284 c-11 -12 -9 -14 8 -14 11 0 20 4 20 9 0 17 -15 19 -28 5z"/>
<path d="M1180 1260 c0 -11 1 -20 3 -20 1 0 10 9 20 20 16 19 16 20 -3 20 -13
0 -20 -7 -20 -20z"/>
<path d="M428 1263 c7 -3 16 -2 19 1 4 3 -2 6 -13 5 -11 0 -14 -3 -6 -6z"/>
<path d="M764 1254 c3 -9 6 -22 6 -30 0 -19 16 -18 24 2 3 8 2 12 -4 9 -6 -3
-10 3 -10 14 0 12 -5 21 -11 21 -6 0 -8 -7 -5 -16z"/>
<path d="M1746 1235 c4 -9 11 -14 16 -13 15 5 11 23 -6 26 -11 2 -14 -2 -10
-13z"/>
<path d="M680 1226 c0 -9 5 -16 10 -16 6 0 10 4 10 9 0 6 -4 13 -10 16 -5 3
-10 -1 -10 -9z"/>
<path d="M1716 1222 c-3 -6 -1 -14 5 -17 15 -10 25 3 12 16 -7 7 -13 7 -17 1z"/>
<path d="M2553 1183 c-7 -2 -13 -11 -13 -19 0 -8 -6 -15 -12 -16 -7 0 -17 -2
-23 -2 -5 -1 -15 -4 -20 -8 -6 -4 -17 -3 -25 3 -24 14 -31 10 -20 -11 6 -11 9
-24 6 -29 -7 -11 18 -33 27 -24 4 3 7 -2 7 -13 0 -16 2 -17 10 -4 5 8 10 25
10 37 0 23 47 63 74 63 9 0 16 7 16 15 0 15 -14 18 -37 8z"/>
<path d="M2100 1150 c0 -5 9 -10 20 -10 11 0 20 5 20 10 0 6 -9 10 -20 10 -11
0 -20 -4 -20 -10z"/>
<path d="M1830 1110 c0 -5 5 -10 11 -10 5 0 7 5 4 10 -3 6 -8 10 -11 10 -2 0
-4 -4 -4 -10z"/>
<path d="M2345 1110 c3 -5 13 -10 21 -10 8 0 12 5 9 10 -3 6 -13 10 -21 10 -8
0 -12 -4 -9 -10z"/>
<path d="M2545 1061 c-3 -5 -1 -12 5 -16 5 -3 10 1 10 9 0 18 -6 21 -15 7z"/>
<path d="M739 1043 c6 -13 15 -23 19 -23 4 0 21 -14 39 -30 18 -17 35 -30 40
-30 4 0 -8 14 -27 31 -19 17 -46 41 -59 53 l-24 21 12 -22z"/>
<path d="M2455 959 c-12 -17 -34 -33 -54 -39 -48 -13 -122 -1 -143 23 -21 24
-22 20 -7 -39 11 -43 22 -54 34 -34 8 13 25 3 25 -15 0 -8 -15 -19 -32 -24
-18 -5 -27 -10 -20 -10 6 -1 12 -6 12 -11 0 -6 -6 -10 -12 -8 -7 1 -32 -8 -55
-20 -71 -37 -150 -27 -157 21 -1 7 -16 31 -34 52 -17 22 -28 42 -24 45 4 3 8
15 10 28 2 21 -1 20 -33 -14 -31 -32 -37 -35 -51 -23 -13 11 -12 5 5 -28 16
-32 25 -41 38 -36 11 4 14 3 9 -5 -5 -8 -2 -10 8 -6 12 5 16 0 16 -19 0 -14 5
-29 10 -32 16 -10 12 -38 -4 -32 -12 5 -13 -1 -9 -28 6 -39 9 -38 -89 -53 -83
-13 -144 0 -175 37 -21 24 -22 25 -23 5 0 -49 -112 -104 -168 -83 -15 6 -34
17 -43 25 -15 13 -17 13 -22 -1 -9 -22 -50 -19 -70 6 -10 11 -21 18 -25 14 -4
-4 -1 -10 6 -12 6 -3 12 -12 12 -21 0 -15 -2 -15 -10 -2 -14 22 -12 3 3 -21
10 -17 9 -22 -8 -32 -34 -19 -55 -18 -79 6 l-23 23 -27 -23 c-15 -13 -41 -23
-59 -24 -38 -1 -75 -13 -61 -21 5 -3 26 -11 47 -17 49 -16 67 -36 67 -72 0
-36 -33 -104 -55 -112 -21 -9 -19 -24 6 -30 15 -4 19 -2 15 9 -7 18 59 101 86
110 10 3 21 17 24 32 13 54 43 89 96 112 64 27 105 29 141 5 29 -19 62 -65 35
-50 -10 6 -11 5 0 -6 17 -18 15 -54 -4 -73 -8 -9 -12 -16 -8 -16 4 0 -1 -9
-11 -20 -10 -11 -22 -17 -26 -14 -5 3 -9 -2 -9 -11 0 -10 7 -15 18 -13 24 4
52 -19 52 -41 0 -16 -39 -58 -58 -63 -4 -1 -15 -12 -25 -25 -11 -14 -29 -23
-45 -23 -29 1 -62 21 -62 37 0 6 -7 16 -15 23 -12 10 -18 8 -32 -9 -18 -22
-46 -40 -93 -61 -23 -10 -23 -12 -7 -21 13 -8 25 -4 52 17 33 25 39 26 74 15
21 -6 46 -22 55 -36 18 -27 22 -75 6 -75 -5 0 -10 -12 -10 -26 0 -20 4 -25 16
-20 14 5 15 4 4 -9 -18 -22 -4 -33 50 -40 43 -6 44 -6 20 9 -14 8 -32 26 -40
40 -7 14 -16 26 -19 26 -3 0 -5 21 -3 48 4 45 24 82 45 82 5 0 27 16 49 35 21
20 54 43 72 52 32 15 34 15 82 -20 44 -31 49 -38 47 -69 -1 -25 2 -35 12 -35
9 0 15 10 15 24 0 13 5 23 11 23 6 0 9 9 6 20 -6 22 18 41 78 59 22 7 46 14
54 17 11 3 11 7 1 19 -21 25 0 17 43 -18 22 -17 59 -39 81 -48 35 -13 41 -19
39 -42 -1 -15 2 -25 8 -22 5 4 9 -1 9 -9 0 -9 -6 -16 -12 -16 -7 0 -4 -6 6
-12 12 -7 47 -8 97 -4 74 6 80 5 117 -21 49 -35 82 -81 82 -116 l0 -27 90 0
90 0 0 86 0 86 -24 -6 c-23 -6 -158 8 -200 21 -10 3 -39 26 -63 51 l-44 45
-35 -17 c-61 -29 -124 0 -116 54 2 16 7 30 11 30 19 0 51 44 51 69 0 19 8 32
25 41 14 8 23 20 21 27 -6 14 23 33 49 33 26 0 75 -58 75 -89 0 -14 -9 -45
-20 -68 -10 -24 -15 -43 -10 -43 6 0 10 4 10 10 0 5 16 17 36 25 39 16 68 21
48 7 -9 -5 -8 -11 2 -20 13 -12 18 -8 15 11 -1 5 8 5 20 2 13 -4 19 -3 16 2
-4 6 5 16 18 23 19 10 36 11 70 3 l45 -10 0 46 0 46 -20 -33 c-19 -31 -24 -33
-58 -28 -20 3 -60 7 -88 8 -44 3 -50 5 -41 19 7 11 2 31 -16 70 -14 30 -27 61
-30 69 -4 11 -6 11 -6 -3 -1 -10 -7 -25 -15 -32 -12 -12 -20 -11 -57 7 -24 12
-47 21 -51 20 -9 -2 -64 23 -113 51 -25 15 -39 31 -39 43 1 10 2 34 2 53 2 25
6 32 18 27 8 -3 12 -2 9 4 -4 6 8 10 27 10 18 0 28 -4 21 -8 -6 -4 12 -7 40
-7 31 0 52 5 55 13 13 40 84 -15 104 -81 l11 -38 13 31 c9 21 28 37 63 54 46
21 49 25 37 41 -7 10 -18 15 -24 11 -16 -10 -14 2 6 44 20 41 62 64 115 63 30
-1 37 3 37 18 0 14 -7 19 -30 19 -29 0 -84 45 -74 61 2 4 1 10 -4 13 -4 2 -17
-9 -27 -25z m-69 -76 c3 -10 12 -29 19 -43 12 -23 11 -27 -8 -43 -26 -21 -44
-23 -27 -3 9 12 7 18 -9 33 -12 9 -21 23 -21 31 0 7 -4 10 -10 7 -17 -11 -11
7 8 21 24 18 42 17 48 -3z m35 -35 c11 -21 11 -22 -4 -9 -10 7 -17 17 -17 22
0 15 9 10 21 -13z m-340 -241 c46 -28 78 -170 44 -190 -8 -4 -12 -14 -9 -21 3
-7 -3 -21 -12 -31 -14 -13 -27 -15 -63 -10 -25 4 -57 13 -69 22 -13 8 -25 13
-26 11 -1 -2 -10 -16 -20 -31 -9 -15 -32 -35 -51 -44 -31 -15 -37 -15 -79 1
-25 10 -46 21 -46 25 0 5 -16 23 -35 42 -32 30 -35 38 -29 72 5 33 3 37 -15
37 -12 0 -22 3 -22 8 -9 60 -8 72 11 82 11 6 21 6 24 1 4 -5 27 -1 53 9 45 16
150 19 191 5 8 -3 26 4 40 16 28 22 74 20 113 -4z"/>
<path d="M1951 424 c0 -11 3 -14 6 -6 3 7 2 16 -1 19 -3 4 -6 -2 -5 -13z"/>
<path d="M1190 970 c0 -5 5 -10 10 -10 6 0 10 5 10 10 0 6 -4 10 -10 10 -5 0
-10 -4 -10 -10z"/>
<path d="M1255 970 c-3 -5 1 -10 10 -10 9 0 13 5 10 10 -3 6 -8 10 -10 10 -2
0 -7 -4 -10 -10z"/>
<path d="M1341 948 c-31 -20 -36 -20 -80 -7 -57 18 -98 14 -80 -7 6 -7 9 -21
5 -29 -4 -12 2 -15 29 -15 24 0 45 -9 70 -31 l35 -31 0 42 c0 34 6 46 32 71
38 34 36 35 -11 7z"/>
<path d="M2193 920 c-30 -12 -29 -25 2 -28 19 -1 25 3 25 18 0 11 -1 20 -2 19
-2 0 -13 -4 -25 -9z"/>
<path d="M2010 871 c0 -5 5 -13 10 -16 6 -3 10 -2 10 4 0 5 -4 13 -10 16 -5 3
-10 2 -10 -4z"/>
<path d="M961 823 c8 -9 8 -13 0 -13 -6 0 -11 -4 -11 -10 0 -12 22 -9 32 4 9
13 -1 33 -17 33 -11 0 -12 -4 -4 -14z"/>
<path d="M1495 819 c-4 -6 -5 -12 -2 -15 2 -3 7 2 10 11 7 17 1 20 -8 4z"/>
<path d="M1527 796 c2 -28 2 -29 -5 -6 l-8 25 -6 -24 c-4 -13 -11 -20 -17 -16
-6 3 -11 1 -11 -4 0 -6 9 -11 20 -11 11 0 20 -5 20 -11 0 -5 -4 -8 -9 -4 -5 3
-12 1 -16 -5 -3 -5 -1 -10 4 -10 6 0 11 -4 11 -9 0 -5 -8 -7 -19 -4 -10 3 -22
0 -25 -5 -4 -6 2 -8 15 -5 19 5 20 3 14 -18 -7 -21 -6 -22 9 -10 9 7 16 20 16
27 0 8 10 14 22 14 17 0 19 3 10 12 -7 7 -9 27 -5 53 4 32 2 42 -9 42 -10 0
-13 -10 -11 -31z"/>
<path d="M1612 783 c4 -21 33 -25 33 -3 0 8 -8 16 -18 18 -14 3 -18 -1 -15
-15z"/>
<path d="M1817 789 c7 -7 15 -10 18 -7 3 3 -2 9 -12 12 -14 6 -15 5 -6 -5z"/>
<path d="M1299 685 c-10 -18 -9 -65 1 -65 6 0 10 5 10 11 0 5 5 7 10 4 6 -3
10 1 10 9 0 9 -4 16 -9 16 -5 0 -11 8 -13 18 -2 9 -6 13 -9 7z"/>
<path d="M409 632 c-14 -6 -15 -9 -3 -20 8 -7 14 -11 15 -10 3 12 7 38 6 37
-1 0 -9 -3 -18 -7z"/>
<path d="M2566 593 c-14 -13 -20 -15 -23 -5 -3 6 -9 10 -14 6 -5 -3 -2 -13 7
-21 15 -15 17 -15 27 3 10 17 12 17 18 -11 6 -29 7 -29 8 8 0 20 0 37 -2 37
-1 0 -11 -8 -21 -17z"/>
<path d="M1468 563 c7 -3 16 -2 19 1 4 3 -2 6 -13 5 -11 0 -14 -3 -6 -6z"/>
<path d="M1485 519 c-4 -6 -5 -13 -2 -16 7 -7 27 6 27 18 0 12 -17 12 -25 -2z"/>
<path d="M2550 521 c0 -5 5 -13 10 -16 6 -3 10 -2 10 4 0 5 -4 13 -10 16 -5 3
-10 2 -10 -4z"/>
<path d="M1540 471 c0 -11 -4 -23 -10 -26 -5 -3 -10 -10 -10 -16 0 -5 5 -9 10
-9 6 0 10 7 10 16 0 8 5 12 10 9 6 -3 10 3 10 14 0 11 -4 23 -10 26 -5 3 -10
-3 -10 -14z"/>
<path d="M625 410 c-8 -13 4 -32 16 -25 12 8 12 35 0 35 -6 0 -13 -4 -16 -10z"/>
<path d="M350 391 c0 -5 -16 -13 -36 -18 -24 -5 -40 -16 -45 -31 -8 -21 -6
-22 39 -23 38 -1 42 -2 22 -9 l-25 -8 26 -1 c32 -1 42 8 28 26 -6 7 -8 13 -3
13 4 0 -1 7 -12 16 -19 15 -19 16 1 9 11 -3 16 -3 12 1 -4 4 -2 13 4 21 9 9 8
13 0 13 -6 0 -11 -4 -11 -9z"/>
<path d="M2485 370 c-3 -6 1 -7 9 -4 18 7 21 14 7 14 -6 0 -13 -4 -16 -10z"/>
<path d="M2366 315 c4 -8 7 -15 9 -15 1 0 8 7 15 15 10 13 9 15 -8 15 -15 0
-20 -5 -16 -15z"/>
<path d="M270 299 c0 -5 5 -7 10 -4 6 3 10 8 10 11 0 2 -4 4 -10 4 -5 0 -10
-5 -10 -11z"/>
<path d="M2276 301 c-4 -7 -5 -15 -2 -18 9 -9 19 4 14 18 -4 11 -6 11 -12 0z"/>
<path d="M1950 230 c0 -5 5 -10 11 -10 5 0 7 5 4 10 -3 6 -8 10 -11 10 -2 0
-4 -4 -4 -10z"/>
<path d="M470 198 c0 -7 5 -20 10 -28 8 -12 10 -9 10 13 0 15 -4 27 -10 27 -5
0 -10 -6 -10 -12z"/>
<path d="M1711 188 c-10 -27 -7 -33 14 -25 17 7 21 47 5 47 -6 0 -14 -10 -19
-22z"/>
<path d="M2020 189 c0 -5 5 -7 10 -4 6 3 10 8 10 11 0 2 -4 4 -10 4 -5 0 -10
-5 -10 -11z"/>
<path d="M420 180 c0 -6 5 -8 13 -4 8 5 8 2 -2 -9 -12 -15 -11 -17 9 -17 15 0
20 5 18 17 -4 20 -38 31 -38 13z"/>
<path d="M1370 175 c0 -8 5 -15 10 -15 6 0 10 7 10 15 0 8 -4 15 -10 15 -5 0
-10 -7 -10 -15z"/>
<path d="M1006 162 c-3 -5 1 -9 9 -9 8 0 15 4 15 9 0 4 -4 8 -9 8 -6 0 -12 -4
-15 -8z"/>
<path d="M1290 160 c0 -5 5 -10 10 -10 6 0 10 5 10 10 0 6 -4 10 -10 10 -5 0
-10 -4 -10 -10z"/>
<path d="M1415 160 c-3 -5 -1 -10 4 -10 6 0 11 5 11 10 0 6 -2 10 -4 10 -3 0
-8 -4 -11 -10z"/>
<path d="M1896 142 c-7 -12 22 -38 31 -28 4 3 0 14 -9 22 -9 10 -18 12 -22 6z"/>
<path d="M1960 135 c-8 -9 -8 -15 -2 -15 12 0 26 19 19 26 -2 2 -10 -2 -17
-11z"/>
<path d="M1320 121 c0 -12 5 -21 10 -21 6 0 10 6 10 14 0 8 -4 18 -10 21 -5 3
-10 -3 -10 -14z"/>
<path d="M470 105 c0 -9 5 -15 11 -13 6 2 11 8 11 13 0 5 -5 11 -11 13 -6 2
-11 -4 -11 -13z"/>
<path d="M1380 101 c0 -25 6 -27 13 -6 4 8 2 17 -3 20 -6 4 -10 -3 -10 -14z"/>
<path d="M1780 93 c-14 -39 -47 -62 -102 -68 -23 -3 -44 -8 -47 -10 -10 -10 9
-17 26 -10 35 15 125 17 134 4 6 -10 11 -10 21 -1 9 7 19 8 28 2 8 -6 45 -10
83 -10 55 0 67 3 67 16 0 12 -5 14 -17 9 -69 -30 -134 -7 -163 58 l-19 42 -11
-32z"/>
<path d="M1412 85 c0 -16 2 -22 5 -12 2 9 2 23 0 30 -3 6 -5 -1 -5 -18z"/>
<path d="M290 47 c0 -10 -8 -17 -20 -17 -11 0 -20 -7 -20 -15 0 -11 11 -15 40
-15 45 0 50 11 20 42 -17 19 -20 19 -20 5z m7 -33 c-3 -3 -12 -4 -19 -1 -8 3
-5 6 6 6 11 1 17 -2 13 -5z"/>
<path d="M2062 53 c-10 -4 -9 -8 5 -19 25 -19 33 -17 33 6 0 20 -12 24 -38 13z"/>
<path d="M1320 16 c0 -12 10 -16 39 -16 22 0 42 4 45 9 3 5 -9 9 -28 9 -19 0
-39 3 -45 7 -6 3 -11 -1 -11 -9z"/>
<path d="M2055 10 c-4 -6 3 -10 14 -10 25 0 27 6 6 13 -8 4 -17 2 -20 -3z"/>
<path d="M838 3 c7 -3 16 -2 19 1 4 3 -2 6 -13 5 -11 0 -14 -3 -6 -6z"/>
</g>
</svg>
